<?xml version="1.0" encoding="utf-8" standalone="no"?>
<!DOCTYPE svg PUBLIC "-//W3C//DTD SVG 1.1//EN"
  "http://www.w3.org/Graphics/SVG/1.1/DTD/svg11.dtd">
<svg xmlns:xlink="http://www.w3.org/1999/xlink" width="1440pt" height="720pt" viewBox="0 0 1440 720" xmlns="http://www.w3.org/2000/svg" version="1.1">
 <metadata>
  <rdf:RDF xmlns:dc="http://purl.org/dc/elements/1.1/" xmlns:cc="http://creativecommons.org/ns#" xmlns:rdf="http://www.w3.org/1999/02/22-rdf-syntax-ns#">
   <cc:Work>
    <dc:type rdf:resource="http://purl.org/dc/dcmitype/StillImage"/>
    <dc:date>2024-12-09T23:57:40.615043</dc:date>
    <dc:format>image/svg+xml</dc:format>
    <dc:creator>
     <cc:Agent>
      <dc:title>Matplotlib v3.8.0, https://matplotlib.org/</dc:title>
     </cc:Agent>
    </dc:creator>
   </cc:Work>
  </rdf:RDF>
 </metadata>
 <defs>
  <style type="text/css">*{stroke-linejoin: round; stroke-linecap: butt}</style>
 </defs>
 <g id="figure_1">
  <g id="patch_1">
   <path d="M 0 720 
L 1440 720 
L 1440 0 
L 0 0 
z
" style="fill: #ffffff"/>
  </g>
  <g id="axes_1">
   <g id="patch_2">
    <path d="M 138.18 615.012 
L 1385.272881 615.012 
L 1385.272881 128.7924 
L 138.18 128.7924 
z
" style="fill: #ffffff"/>
   </g>
   <g id="matplotlib.axis_1">
    <g id="xtick_1">
     <g id="text_1">
      <!-- 0 -->
      <g style="fill: #262626" transform="translate(128 651.827) scale(0.32 -0.32)">
       <defs>
        <path id="DejaVuSans-30" d="M 2034 4250 
Q 1547 4250 1301 3770 
Q 1056 3291 1056 2328 
Q 1056 1369 1301 889 
Q 1547 409 2034 409 
Q 2525 409 2770 889 
Q 3016 1369 3016 2328 
Q 3016 3291 2770 3770 
Q 2525 4250 2034 4250 
z
M 2034 4750 
Q 2819 4750 3233 4129 
Q 3647 3509 3647 2328 
Q 3647 1150 3233 529 
Q 2819 -91 2034 -91 
Q 1250 -91 836 529 
Q 422 1150 422 2328 
Q 422 3509 836 4129 
Q 1250 4750 2034 4750 
z
" transform="scale(0.015625)"/>
       </defs>
       <use xlink:href="#DejaVuSans-30"/>
      </g>
     </g>
    </g>
    <g id="xtick_2">
     <g id="text_2">
      <!-- $2.5$ -->
      <g style="fill: #262626" transform="translate(320.428813 651.827) scale(0.32 -0.32)">
       <defs>
        <path id="DejaVuSans-32" d="M 1228 531 
L 3431 531 
L 3431 0 
L 469 0 
L 469 531 
Q 828 903 1448 1529 
Q 2069 2156 2228 2338 
Q 2531 2678 2651 2914 
Q 2772 3150 2772 3378 
Q 2772 3750 2511 3984 
Q 2250 4219 1831 4219 
Q 1534 4219 1204 4116 
Q 875 4013 500 3803 
L 500 4441 
Q 881 4594 1212 4672 
Q 1544 4750 1819 4750 
Q 2544 4750 2975 4387 
Q 3406 4025 3406 3419 
Q 3406 3131 3298 2873 
Q 3191 2616 2906 2266 
Q 2828 2175 2409 1742 
Q 1991 1309 1228 531 
z
" transform="scale(0.015625)"/>
        <path id="DejaVuSans-2e" d="M 684 794 
L 1344 794 
L 1344 0 
L 684 0 
L 684 794 
z
" transform="scale(0.015625)"/>
        <path id="DejaVuSans-35" d="M 691 4666 
L 3169 4666 
L 3169 4134 
L 1269 4134 
L 1269 2991 
Q 1406 3038 1543 3061 
Q 1681 3084 1819 3084 
Q 2600 3084 3056 2656 
Q 3513 2228 3513 1497 
Q 3513 744 3044 326 
Q 2575 -91 1722 -91 
Q 1428 -91 1123 -41 
Q 819 9 494 109 
L 494 744 
Q 775 591 1075 516 
Q 1375 441 1709 441 
Q 2250 441 2565 725 
Q 2881 1009 2881 1497 
Q 2881 1984 2565 2268 
Q 2250 2553 1709 2553 
Q 1456 2553 1204 2497 
Q 953 2441 691 2322 
L 691 4666 
z
" transform="scale(0.015625)"/>
       </defs>
       <use xlink:href="#DejaVuSans-32" transform="translate(0 0.78125)"/>
       <use xlink:href="#DejaVuSans-2e" transform="translate(63.623047 0.78125)"/>
       <use xlink:href="#DejaVuSans-35" transform="translate(95.410156 0.78125)"/>
      </g>
     </g>
    </g>
    <g id="xtick_3">
     <g id="text_3">
      <!-- $5.0$ -->
      <g style="fill: #262626" transform="translate(528.277627 651.827) scale(0.32 -0.32)">
       <use xlink:href="#DejaVuSans-35" transform="translate(0 0.78125)"/>
       <use xlink:href="#DejaVuSans-2e" transform="translate(63.623047 0.78125)"/>
       <use xlink:href="#DejaVuSans-30" transform="translate(95.410156 0.78125)"/>
      </g>
     </g>
    </g>
    <g id="xtick_4">
     <g id="text_4">
      <!-- $7.5$ -->
      <g style="fill: #262626" transform="translate(736.12644 651.827) scale(0.32 -0.32)">
       <defs>
        <path id="DejaVuSans-37" d="M 525 4666 
L 3525 4666 
L 3525 4397 
L 1831 0 
L 1172 0 
L 2766 4134 
L 525 4134 
L 525 4666 
z
" transform="scale(0.015625)"/>
       </defs>
       <use xlink:href="#DejaVuSans-37" transform="translate(0 0.09375)"/>
       <use xlink:href="#DejaVuSans-2e" transform="translate(63.623047 0.09375)"/>
       <use xlink:href="#DejaVuSans-35" transform="translate(95.410156 0.09375)"/>
      </g>
     </g>
    </g>
    <g id="xtick_5">
     <g id="text_5">
      <!-- $10.0$ -->
      <g style="fill: #262626" transform="translate(933.895254 651.827) scale(0.32 -0.32)">
       <defs>
        <path id="DejaVuSans-31" d="M 794 531 
L 1825 531 
L 1825 4091 
L 703 3866 
L 703 4441 
L 1819 4666 
L 2450 4666 
L 2450 531 
L 3481 531 
L 3481 0 
L 794 0 
L 794 531 
z
" transform="scale(0.015625)"/>
       </defs>
       <use xlink:href="#DejaVuSans-31" transform="translate(0 0.78125)"/>
       <use xlink:href="#DejaVuSans-30" transform="translate(63.623047 0.78125)"/>
       <use xlink:href="#DejaVuSans-2e" transform="translate(127.246094 0.78125)"/>
       <use xlink:href="#DejaVuSans-30" transform="translate(159.033203 0.78125)"/>
      </g>
     </g>
    </g>
    <g id="xtick_6">
     <g id="text_6">
      <!-- $12.5$ -->
      <g style="fill: #262626" transform="translate(1141.744067 651.827) scale(0.32 -0.32)">
       <use xlink:href="#DejaVuSans-31" transform="translate(0 0.78125)"/>
       <use xlink:href="#DejaVuSans-32" transform="translate(63.623047 0.78125)"/>
       <use xlink:href="#DejaVuSans-2e" transform="translate(127.246094 0.78125)"/>
       <use xlink:href="#DejaVuSans-35" transform="translate(159.033203 0.78125)"/>
      </g>
     </g>
    </g>
    <g id="xtick_7">
     <g id="text_7">
      <!-- $15.0$ -->
      <g style="fill: #262626" transform="translate(1349.592881 651.827) scale(0.32 -0.32)">
       <use xlink:href="#DejaVuSans-31" transform="translate(0 0.78125)"/>
       <use xlink:href="#DejaVuSans-35" transform="translate(63.623047 0.78125)"/>
       <use xlink:href="#DejaVuSans-2e" transform="translate(127.246094 0.78125)"/>
       <use xlink:href="#DejaVuSans-30" transform="translate(159.033203 0.78125)"/>
      </g>
     </g>
    </g>
    <g id="text_8">
     <!-- Training Steps ($\times 10^4$) -->
     <g style="fill: #262626" transform="translate(568.60644 691.282) scale(0.32 -0.32)">
      <defs>
       <path id="DejaVuSans-Bold-54" d="M 31 4666 
L 4331 4666 
L 4331 3756 
L 2784 3756 
L 2784 0 
L 1581 0 
L 1581 3756 
L 31 3756 
L 31 4666 
z
" transform="scale(0.015625)"/>
       <path id="DejaVuSans-Bold-72" d="M 3138 2547 
Q 2991 2616 2845 2648 
Q 2700 2681 2553 2681 
Q 2122 2681 1889 2404 
Q 1656 2128 1656 1613 
L 1656 0 
L 538 0 
L 538 3500 
L 1656 3500 
L 1656 2925 
Q 1872 3269 2151 3426 
Q 2431 3584 2822 3584 
Q 2878 3584 2943 3579 
Q 3009 3575 3134 3559 
L 3138 2547 
z
" transform="scale(0.015625)"/>
       <path id="DejaVuSans-Bold-61" d="M 2106 1575 
Q 1756 1575 1579 1456 
Q 1403 1338 1403 1106 
Q 1403 894 1545 773 
Q 1688 653 1941 653 
Q 2256 653 2472 879 
Q 2688 1106 2688 1447 
L 2688 1575 
L 2106 1575 
z
M 3816 1997 
L 3816 0 
L 2688 0 
L 2688 519 
Q 2463 200 2181 54 
Q 1900 -91 1497 -91 
Q 953 -91 614 226 
Q 275 544 275 1050 
Q 275 1666 698 1953 
Q 1122 2241 2028 2241 
L 2688 2241 
L 2688 2328 
Q 2688 2594 2478 2717 
Q 2269 2841 1825 2841 
Q 1466 2841 1156 2769 
Q 847 2697 581 2553 
L 581 3406 
Q 941 3494 1303 3539 
Q 1666 3584 2028 3584 
Q 2975 3584 3395 3211 
Q 3816 2838 3816 1997 
z
" transform="scale(0.015625)"/>
       <path id="DejaVuSans-Bold-69" d="M 538 3500 
L 1656 3500 
L 1656 0 
L 538 0 
L 538 3500 
z
M 538 4863 
L 1656 4863 
L 1656 3950 
L 538 3950 
L 538 4863 
z
" transform="scale(0.015625)"/>
       <path id="DejaVuSans-Bold-6e" d="M 4056 2131 
L 4056 0 
L 2931 0 
L 2931 347 
L 2931 1631 
Q 2931 2084 2911 2256 
Q 2891 2428 2841 2509 
Q 2775 2619 2662 2680 
Q 2550 2741 2406 2741 
Q 2056 2741 1856 2470 
Q 1656 2200 1656 1722 
L 1656 0 
L 538 0 
L 538 3500 
L 1656 3500 
L 1656 2988 
Q 1909 3294 2193 3439 
Q 2478 3584 2822 3584 
Q 3428 3584 3742 3212 
Q 4056 2841 4056 2131 
z
" transform="scale(0.015625)"/>
       <path id="DejaVuSans-Bold-67" d="M 2919 594 
Q 2688 288 2409 144 
Q 2131 0 1766 0 
Q 1125 0 706 504 
Q 288 1009 288 1791 
Q 288 2575 706 3076 
Q 1125 3578 1766 3578 
Q 2131 3578 2409 3434 
Q 2688 3291 2919 2981 
L 2919 3500 
L 4044 3500 
L 4044 353 
Q 4044 -491 3511 -936 
Q 2978 -1381 1966 -1381 
Q 1638 -1381 1331 -1331 
Q 1025 -1281 716 -1178 
L 716 -306 
Q 1009 -475 1290 -558 
Q 1572 -641 1856 -641 
Q 2406 -641 2662 -400 
Q 2919 -159 2919 353 
L 2919 594 
z
M 2181 2772 
Q 1834 2772 1640 2515 
Q 1447 2259 1447 1791 
Q 1447 1309 1634 1061 
Q 1822 813 2181 813 
Q 2531 813 2725 1069 
Q 2919 1325 2919 1791 
Q 2919 2259 2725 2515 
Q 2531 2772 2181 2772 
z
" transform="scale(0.015625)"/>
       <path id="DejaVuSans-Bold-20" transform="scale(0.015625)"/>
       <path id="DejaVuSans-Bold-53" d="M 3834 4519 
L 3834 3531 
Q 3450 3703 3084 3790 
Q 2719 3878 2394 3878 
Q 1963 3878 1756 3759 
Q 1550 3641 1550 3391 
Q 1550 3203 1689 3098 
Q 1828 2994 2194 2919 
L 2706 2816 
Q 3484 2659 3812 2340 
Q 4141 2022 4141 1434 
Q 4141 663 3683 286 
Q 3225 -91 2284 -91 
Q 1841 -91 1394 -6 
Q 947 78 500 244 
L 500 1259 
Q 947 1022 1364 901 
Q 1781 781 2169 781 
Q 2563 781 2772 912 
Q 2981 1044 2981 1288 
Q 2981 1506 2839 1625 
Q 2697 1744 2272 1838 
L 1806 1941 
Q 1106 2091 782 2419 
Q 459 2747 459 3303 
Q 459 4000 909 4375 
Q 1359 4750 2203 4750 
Q 2588 4750 2994 4692 
Q 3400 4634 3834 4519 
z
" transform="scale(0.015625)"/>
       <path id="DejaVuSans-Bold-74" d="M 1759 4494 
L 1759 3500 
L 2913 3500 
L 2913 2700 
L 1759 2700 
L 1759 1216 
Q 1759 972 1856 886 
Q 1953 800 2241 800 
L 2816 800 
L 2816 0 
L 1856 0 
Q 1194 0 917 276 
Q 641 553 641 1216 
L 641 2700 
L 84 2700 
L 84 3500 
L 641 3500 
L 641 4494 
L 1759 4494 
z
" transform="scale(0.015625)"/>
       <path id="DejaVuSans-Bold-65" d="M 4031 1759 
L 4031 1441 
L 1416 1441 
Q 1456 1047 1700 850 
Q 1944 653 2381 653 
Q 2734 653 3104 758 
Q 3475 863 3866 1075 
L 3866 213 
Q 3469 63 3072 -14 
Q 2675 -91 2278 -91 
Q 1328 -91 801 392 
Q 275 875 275 1747 
Q 275 2603 792 3093 
Q 1309 3584 2216 3584 
Q 3041 3584 3536 3087 
Q 4031 2591 4031 1759 
z
M 2881 2131 
Q 2881 2450 2695 2645 
Q 2509 2841 2209 2841 
Q 1884 2841 1681 2658 
Q 1478 2475 1428 2131 
L 2881 2131 
z
" transform="scale(0.015625)"/>
       <path id="DejaVuSans-Bold-70" d="M 1656 506 
L 1656 -1331 
L 538 -1331 
L 538 3500 
L 1656 3500 
L 1656 2988 
Q 1888 3294 2169 3439 
Q 2450 3584 2816 3584 
Q 3463 3584 3878 3070 
Q 4294 2556 4294 1747 
Q 4294 938 3878 423 
Q 3463 -91 2816 -91 
Q 2450 -91 2169 54 
Q 1888 200 1656 506 
z
M 2400 2772 
Q 2041 2772 1848 2508 
Q 1656 2244 1656 1747 
Q 1656 1250 1848 986 
Q 2041 722 2400 722 
Q 2759 722 2948 984 
Q 3138 1247 3138 1747 
Q 3138 2247 2948 2509 
Q 2759 2772 2400 2772 
z
" transform="scale(0.015625)"/>
       <path id="DejaVuSans-Bold-73" d="M 3272 3391 
L 3272 2541 
Q 2913 2691 2578 2766 
Q 2244 2841 1947 2841 
Q 1628 2841 1473 2761 
Q 1319 2681 1319 2516 
Q 1319 2381 1436 2309 
Q 1553 2238 1856 2203 
L 2053 2175 
Q 2913 2066 3209 1816 
Q 3506 1566 3506 1031 
Q 3506 472 3093 190 
Q 2681 -91 1863 -91 
Q 1516 -91 1145 -36 
Q 775 19 384 128 
L 384 978 
Q 719 816 1070 734 
Q 1422 653 1784 653 
Q 2113 653 2278 743 
Q 2444 834 2444 1013 
Q 2444 1163 2330 1236 
Q 2216 1309 1875 1350 
L 1678 1375 
Q 931 1469 631 1722 
Q 331 1975 331 2491 
Q 331 3047 712 3315 
Q 1094 3584 1881 3584 
Q 2191 3584 2531 3537 
Q 2872 3491 3272 3391 
z
" transform="scale(0.015625)"/>
       <path id="DejaVuSans-Bold-28" d="M 2413 -844 
L 1484 -844 
Q 1006 -72 778 623 
Q 550 1319 550 2003 
Q 550 2688 779 3389 
Q 1009 4091 1484 4856 
L 2413 4856 
Q 2013 4116 1813 3408 
Q 1613 2700 1613 2009 
Q 1613 1319 1811 609 
Q 2009 -100 2413 -844 
z
" transform="scale(0.015625)"/>
       <path id="DejaVuSans-d7" d="M 4488 3438 
L 3059 2003 
L 4488 575 
L 4116 197 
L 2681 1631 
L 1247 197 
L 878 575 
L 2303 2003 
L 878 3438 
L 1247 3816 
L 2681 2381 
L 4116 3816 
L 4488 3438 
z
" transform="scale(0.015625)"/>
       <path id="DejaVuSans-34" d="M 2419 4116 
L 825 1625 
L 2419 1625 
L 2419 4116 
z
M 2253 4666 
L 3047 4666 
L 3047 1625 
L 3713 1625 
L 3713 1100 
L 3047 1100 
L 3047 0 
L 2419 0 
L 2419 1100 
L 313 1100 
L 313 1709 
L 2253 4666 
z
" transform="scale(0.015625)"/>
       <path id="DejaVuSans-Bold-29" d="M 513 -844 
Q 913 -100 1113 609 
Q 1313 1319 1313 2009 
Q 1313 2700 1113 3408 
Q 913 4116 513 4856 
L 1441 4856 
Q 1916 4091 2145 3389 
Q 2375 2688 2375 2003 
Q 2375 1319 2147 623 
Q 1919 -72 1441 -844 
L 513 -844 
z
" transform="scale(0.015625)"/>
      </defs>
      <use xlink:href="#DejaVuSans-Bold-54" transform="translate(0 0.684375)"/>
      <use xlink:href="#DejaVuSans-Bold-72" transform="translate(68.212891 0.684375)"/>
      <use xlink:href="#DejaVuSans-Bold-61" transform="translate(117.529297 0.684375)"/>
      <use xlink:href="#DejaVuSans-Bold-69" transform="translate(185.009766 0.684375)"/>
      <use xlink:href="#DejaVuSans-Bold-6e" transform="translate(219.287109 0.684375)"/>
      <use xlink:href="#DejaVuSans-Bold-69" transform="translate(290.478516 0.684375)"/>
      <use xlink:href="#DejaVuSans-Bold-6e" transform="translate(324.755859 0.684375)"/>
      <use xlink:href="#DejaVuSans-Bold-67" transform="translate(395.947266 0.684375)"/>
      <use xlink:href="#DejaVuSans-Bold-20" transform="translate(467.529297 0.684375)"/>
      <use xlink:href="#DejaVuSans-Bold-53" transform="translate(502.34375 0.684375)"/>
      <use xlink:href="#DejaVuSans-Bold-74" transform="translate(574.365234 0.684375)"/>
      <use xlink:href="#DejaVuSans-Bold-65" transform="translate(622.167969 0.684375)"/>
      <use xlink:href="#DejaVuSans-Bold-70" transform="translate(689.990234 0.684375)"/>
      <use xlink:href="#DejaVuSans-Bold-73" transform="translate(761.572266 0.684375)"/>
      <use xlink:href="#DejaVuSans-Bold-20" transform="translate(821.09375 0.684375)"/>
      <use xlink:href="#DejaVuSans-Bold-28" transform="translate(855.908203 0.684375)"/>
      <use xlink:href="#DejaVuSans-d7" transform="translate(901.611328 0.684375)"/>
      <use xlink:href="#DejaVuSans-31" transform="translate(985.400391 0.684375)"/>
      <use xlink:href="#DejaVuSans-30" transform="translate(1049.023438 0.684375)"/>
      <use xlink:href="#DejaVuSans-34" transform="translate(1113.603516 38.965625) scale(0.7)"/>
      <use xlink:href="#DejaVuSans-Bold-29" transform="translate(1160.874023 0.684375)"/>
     </g>
    </g>
   </g>
   <g id="matplotlib.axis_2">
    <g id="ytick_1">
     <g id="text_9">
      <!-- 0.20 -->
      <g style="fill: #262626" transform="translate(54.43 627.1695) scale(0.32 -0.32)">
       <use xlink:href="#DejaVuSans-30"/>
       <use xlink:href="#DejaVuSans-2e" x="63.623047"/>
       <use xlink:href="#DejaVuSans-32" x="95.410156"/>
       <use xlink:href="#DejaVuSans-30" x="159.033203"/>
      </g>
     </g>
    </g>
    <g id="ytick_2">
     <g id="text_10">
      <!-- 0.25 -->
      <g style="fill: #262626" transform="translate(54.43 505.6146) scale(0.32 -0.32)">
       <use xlink:href="#DejaVuSans-30"/>
       <use xlink:href="#DejaVuSans-2e" x="63.623047"/>
       <use xlink:href="#DejaVuSans-32" x="95.410156"/>
       <use xlink:href="#DejaVuSans-35" x="159.033203"/>
      </g>
     </g>
    </g>
    <g id="ytick_3">
     <g id="text_11">
      <!-- 0.30 -->
      <g style="fill: #262626" transform="translate(54.43 384.0597) scale(0.32 -0.32)">
       <defs>
        <path id="DejaVuSans-33" d="M 2597 2516 
Q 3050 2419 3304 2112 
Q 3559 1806 3559 1356 
Q 3559 666 3084 287 
Q 2609 -91 1734 -91 
Q 1441 -91 1130 -33 
Q 819 25 488 141 
L 488 750 
Q 750 597 1062 519 
Q 1375 441 1716 441 
Q 2309 441 2620 675 
Q 2931 909 2931 1356 
Q 2931 1769 2642 2001 
Q 2353 2234 1838 2234 
L 1294 2234 
L 1294 2753 
L 1863 2753 
Q 2328 2753 2575 2939 
Q 2822 3125 2822 3475 
Q 2822 3834 2567 4026 
Q 2313 4219 1838 4219 
Q 1578 4219 1281 4162 
Q 984 4106 628 3988 
L 628 4550 
Q 988 4650 1302 4700 
Q 1616 4750 1894 4750 
Q 2613 4750 3031 4423 
Q 3450 4097 3450 3541 
Q 3450 3153 3228 2886 
Q 3006 2619 2597 2516 
z
" transform="scale(0.015625)"/>
       </defs>
       <use xlink:href="#DejaVuSans-30"/>
       <use xlink:href="#DejaVuSans-2e" x="63.623047"/>
       <use xlink:href="#DejaVuSans-33" x="95.410156"/>
       <use xlink:href="#DejaVuSans-30" x="159.033203"/>
      </g>
     </g>
    </g>
    <g id="ytick_4">
     <g id="text_12">
      <!-- 0.35 -->
      <g style="fill: #262626" transform="translate(54.43 262.5048) scale(0.32 -0.32)">
       <use xlink:href="#DejaVuSans-30"/>
       <use xlink:href="#DejaVuSans-2e" x="63.623047"/>
       <use xlink:href="#DejaVuSans-33" x="95.410156"/>
       <use xlink:href="#DejaVuSans-35" x="159.033203"/>
      </g>
     </g>
    </g>
    <g id="ytick_5">
     <g id="text_13">
      <!-- 0.40 -->
      <g style="fill: #262626" transform="translate(54.43 140.9499) scale(0.32 -0.32)">
       <use xlink:href="#DejaVuSans-30"/>
       <use xlink:href="#DejaVuSans-2e" x="63.623047"/>
       <use xlink:href="#DejaVuSans-34" x="95.410156"/>
       <use xlink:href="#DejaVuSans-30" x="159.033203"/>
      </g>
     </g>
    </g>
    <g id="text_14">
     <!-- Projected Score -->
     <g style="fill: #262626" transform="translate(43.525 514.5997) rotate(-90) scale(0.32 -0.32)">
      <defs>
       <path id="DejaVuSans-Bold-50" d="M 588 4666 
L 2584 4666 
Q 3475 4666 3951 4270 
Q 4428 3875 4428 3144 
Q 4428 2409 3951 2014 
Q 3475 1619 2584 1619 
L 1791 1619 
L 1791 0 
L 588 0 
L 588 4666 
z
M 1791 3794 
L 1791 2491 
L 2456 2491 
Q 2806 2491 2997 2661 
Q 3188 2831 3188 3144 
Q 3188 3456 2997 3625 
Q 2806 3794 2456 3794 
L 1791 3794 
z
" transform="scale(0.015625)"/>
       <path id="DejaVuSans-Bold-6f" d="M 2203 2784 
Q 1831 2784 1636 2517 
Q 1441 2250 1441 1747 
Q 1441 1244 1636 976 
Q 1831 709 2203 709 
Q 2569 709 2762 976 
Q 2956 1244 2956 1747 
Q 2956 2250 2762 2517 
Q 2569 2784 2203 2784 
z
M 2203 3584 
Q 3106 3584 3614 3096 
Q 4122 2609 4122 1747 
Q 4122 884 3614 396 
Q 3106 -91 2203 -91 
Q 1297 -91 786 396 
Q 275 884 275 1747 
Q 275 2609 786 3096 
Q 1297 3584 2203 3584 
z
" transform="scale(0.015625)"/>
       <path id="DejaVuSans-Bold-6a" d="M 538 3500 
L 1656 3500 
L 1656 63 
Q 1656 -641 1318 -1011 
Q 981 -1381 341 -1381 
L -213 -1381 
L -213 -647 
L -19 -647 
Q 300 -647 419 -503 
Q 538 -359 538 63 
L 538 3500 
z
M 538 4863 
L 1656 4863 
L 1656 3950 
L 538 3950 
L 538 4863 
z
" transform="scale(0.015625)"/>
       <path id="DejaVuSans-Bold-63" d="M 3366 3391 
L 3366 2478 
Q 3138 2634 2908 2709 
Q 2678 2784 2431 2784 
Q 1963 2784 1702 2511 
Q 1441 2238 1441 1747 
Q 1441 1256 1702 982 
Q 1963 709 2431 709 
Q 2694 709 2930 787 
Q 3166 866 3366 1019 
L 3366 103 
Q 3103 6 2833 -42 
Q 2563 -91 2291 -91 
Q 1344 -91 809 395 
Q 275 881 275 1747 
Q 275 2613 809 3098 
Q 1344 3584 2291 3584 
Q 2566 3584 2833 3536 
Q 3100 3488 3366 3391 
z
" transform="scale(0.015625)"/>
       <path id="DejaVuSans-Bold-64" d="M 2919 2988 
L 2919 4863 
L 4044 4863 
L 4044 0 
L 2919 0 
L 2919 506 
Q 2688 197 2409 53 
Q 2131 -91 1766 -91 
Q 1119 -91 703 423 
Q 288 938 288 1747 
Q 288 2556 703 3070 
Q 1119 3584 1766 3584 
Q 2128 3584 2408 3439 
Q 2688 3294 2919 2988 
z
M 2181 722 
Q 2541 722 2730 984 
Q 2919 1247 2919 1747 
Q 2919 2247 2730 2509 
Q 2541 2772 2181 2772 
Q 1825 2772 1636 2509 
Q 1447 2247 1447 1747 
Q 1447 1247 1636 984 
Q 1825 722 2181 722 
z
" transform="scale(0.015625)"/>
      </defs>
      <use xlink:href="#DejaVuSans-Bold-50"/>
      <use xlink:href="#DejaVuSans-Bold-72" x="73.291016"/>
      <use xlink:href="#DejaVuSans-Bold-6f" x="122.607422"/>
      <use xlink:href="#DejaVuSans-Bold-6a" x="191.308594"/>
      <use xlink:href="#DejaVuSans-Bold-65" x="225.585938"/>
      <use xlink:href="#DejaVuSans-Bold-63" x="293.408203"/>
      <use xlink:href="#DejaVuSans-Bold-74" x="352.685547"/>
      <use xlink:href="#DejaVuSans-Bold-65" x="400.488281"/>
      <use xlink:href="#DejaVuSans-Bold-64" x="468.310547"/>
      <use xlink:href="#DejaVuSans-Bold-20" x="539.892578"/>
      <use xlink:href="#DejaVuSans-Bold-53" x="574.707031"/>
      <use xlink:href="#DejaVuSans-Bold-63" x="646.728516"/>
      <use xlink:href="#DejaVuSans-Bold-6f" x="706.005859"/>
      <use xlink:href="#DejaVuSans-Bold-72" x="774.707031"/>
      <use xlink:href="#DejaVuSans-Bold-65" x="824.023438"/>
     </g>
    </g>
   </g>
   <g id="PolyCollection_1"/>
   <g id="PolyCollection_2"/>
   <g id="PolyCollection_3"/>
   <g id="PolyCollection_4"/>
   <g id="PolyCollection_5"/>
   <g id="line2d_1">
    <path d="M 251.913417 721 
L 255.533538 705.205332 
L 259.37067 689.495787 
L 263.207802 674.750501 
L 267.044934 660.883338 
L 270.882066 647.818123 
L 274.719198 635.487247 
L 278.982678 622.574512 
L 283.246159 610.420786 
L 287.509639 598.961057 
L 291.773119 588.137533 
L 296.036599 577.898664 
L 300.300079 568.198325 
L 304.989907 558.10067 
L 309.679735 548.555276 
L 314.369564 539.518042 
L 319.059392 530.949442 
L 323.74922 522.813944 
L 328.865396 514.395258 
L 333.981572 506.416521 
L 339.097748 498.844127 
L 344.213924 491.647803 
L 349.756449 484.24453 
L 355.298973 477.219232 
L 360.841497 470.543684 
L 366.810369 463.716597 
L 372.779241 457.236911 
L 378.748114 451.078767 
L 385.143334 444.811081 
L 391.538554 438.859811 
L 397.933774 433.201585 
L 404.755342 427.46538 
L 411.576911 422.015426 
L 418.824827 416.515146 
L 426.072743 411.291814 
L 433.747007 406.040448 
L 441.421271 401.054879 
L 449.521884 396.058974 
L 458.048844 391.073494 
L 466.575804 386.346915 
L 475.529113 381.641167 
L 484.908769 376.971997 
L 494.288425 372.548793 
L 504.094429 368.166993 
L 514.326782 363.83826 
L 524.985482 359.572695 
L 536.07053 355.378935 
L 547.581927 351.264248 
L 559.519671 347.234645 
L 571.883764 343.294984 
L 584.674204 339.449077 
L 598.31734 335.582443 
L 612.386825 331.828003 
L 627.309005 328.082041 
L 642.657534 324.460248 
L 658.858758 320.868892 
L 675.912679 317.322309 
L 693.392947 313.913173 
L 711.725912 310.560994 
L 731.33792 307.204346 
L 751.802625 303.930517 
L 773.120026 300.744689 
L 795.71647 297.593243 
L 819.591959 294.490507 
L 844.746492 291.448391 
L 871.180069 288.476581 
L 899.319038 285.539862 
L 929.163399 282.653484 
L 960.713152 279.829921 
L 993.968297 277.079107 
L 1029.355182 274.377419 
L 1066.873807 271.737847 
L 1106.95052 269.144141 
L 1149.585321 266.610527 
L 1195.204559 264.125907 
L 1243.808232 261.704337 
L 1295.82269 259.338076 
L 1351.67428 257.023105 
L 1385.355773 255.727275 
L 1385.355773 255.727275 
" clip-path="url(#p70c404b283)" style="fill: none; stroke: #4c72b0; stroke-width: 5; stroke-linecap: round"/>
   </g>
   <g id="line2d_2">
    <path d="M 469.442069 721 
L 474.250068 706.455552 
L 479.366245 691.649663 
L 484.482421 677.495128 
L 489.598597 663.954294 
L 495.141121 649.9371 
L 500.683645 636.55793 
L 506.226169 623.77864 
L 511.768694 611.563897 
L 517.311218 599.880931 
L 522.853742 588.699315 
L 528.396266 577.990769 
L 534.365138 566.957401 
L 540.334011 556.411658 
L 546.302883 546.325223 
L 552.271755 536.671806 
L 558.240627 527.42697 
L 564.209499 518.567978 
L 570.604719 509.480342 
L 576.99994 500.787124 
L 583.39516 492.465827 
L 589.79038 484.495531 
L 596.611948 476.358858 
L 603.433516 468.577455 
L 610.255085 461.130936 
L 617.076653 454.000358 
L 624.324569 446.750605 
L 631.572485 439.817996 
L 638.820402 433.184297 
L 646.494666 426.467377 
L 654.16893 420.047924 
L 661.843194 413.908628 
L 669.943807 407.714459 
L 678.044419 401.797021 
L 686.571379 395.849264 
L 695.098339 390.172608 
L 704.051648 384.48615 
L 713.004956 379.063329 
L 722.384612 373.647575 
L 731.764268 368.486523 
L 741.570273 363.346154 
L 751.802625 358.242867 
L 762.034977 353.388624 
L 772.693678 348.579771 
L 783.778726 343.829077 
L 794.863774 339.316927 
L 806.375171 334.86689 
L 818.312915 330.488623 
L 830.677007 326.190577 
L 843.467448 321.980052 
L 856.684236 317.86325 
L 870.327373 313.845338 
L 884.396857 309.930524 
L 899.319038 306.013388 
L 914.667566 302.217624 
L 930.442443 298.544029 
L 947.070015 294.90217 
L 964.123936 291.393065 
L 982.030552 287.93508 
L 1000.789865 284.540924 
L 1020.401873 281.221446 
L 1040.866578 277.985729 
L 1062.183979 274.841196 
L 1084.780423 271.73721 
L 1108.229564 268.742691 
L 1132.957749 265.811424 
L 1158.964978 262.955489 
L 1186.25125 260.184702 
L 1215.242915 257.468423 
L 1245.513624 254.856902 
L 1277.489725 252.321203 
L 1311.597566 249.841677 
L 1347.837147 247.433604 
L 1385.355773 245.158395 
L 1385.355773 245.158395 
" clip-path="url(#p70c404b283)" style="fill: none; stroke: #dd8452; stroke-width: 5; stroke-linecap: round"/>
   </g>
   <g id="line2d_3">
    <path d="M 611.258597 721 
L 616.223957 705.211666 
L 621.766481 688.346166 
L 627.309005 672.236461 
L 632.851529 656.840683 
L 638.394054 642.119717 
L 643.936578 628.036994 
L 649.479102 614.558294 
L 655.021626 601.651579 
L 660.56415 589.286825 
L 666.106674 577.435883 
L 672.075547 565.217687 
L 678.044419 553.533876 
L 684.013291 542.355553 
L 689.982163 531.655673 
L 695.951035 521.408911 
L 701.919908 511.591532 
L 707.88878 502.181279 
L 714.284 492.526946 
L 720.67922 483.291944 
L 727.07444 474.45375 
L 733.46966 465.99128 
L 739.864881 457.884778 
L 746.686449 449.609352 
L 753.508017 441.696832 
L 760.329585 434.127542 
L 767.151154 426.883071 
L 774.39907 419.522463 
L 781.646986 412.489761 
L 788.894902 405.766908 
L 796.142818 399.337025 
L 803.817083 392.830714 
L 811.491347 386.617659 
L 819.165611 380.681521 
L 827.266223 374.699177 
L 835.366836 368.991643 
L 843.893796 363.263467 
L 852.420756 357.805574 
L 861.374064 352.348456 
L 870.327373 347.155016 
L 879.707029 341.979952 
L 889.086685 337.060234 
L 898.89269 332.173041 
L 908.698694 327.531475 
L 918.931046 322.933512 
L 929.589747 318.393476 
L 940.248447 314.091571 
L 951.333495 309.853646 
L 962.844892 305.690584 
L 974.782636 301.611947 
L 987.146728 297.626014 
L 999.937169 293.739833 
L 1013.153957 289.959276 
L 1026.797094 286.289111 
L 1040.866578 282.733068 
L 1055.788758 279.19604 
L 1071.137287 275.7902 
L 1086.912163 272.515645 
L 1103.539736 269.291881 
L 1121.020004 266.133918 
L 1138.926621 263.123664 
L 1157.685934 260.192802 
L 1177.72429 257.291401 
L 1198.615343 254.495514 
L 1220.359092 251.81027 
L 1243.381884 249.192708 
L 1267.683721 246.65638 
L 1293.264602 244.212153 
L 1320.550875 241.83288 
L 1349.116192 239.566525 
L 1379.813248 237.357937 
L 1385.355773 236.982078 
L 1385.355773 236.982078 
" clip-path="url(#p70c404b283)" style="fill: none; stroke: #55a868; stroke-width: 5; stroke-linecap: round"/>
   </g>
   <g id="line2d_4">
    <path d="M 767.313187 721 
L 772.26733 701.309512 
L 777.383506 681.921789 
L 782.499682 663.443175 
L 787.615858 645.824323 
L 792.732034 629.018923 
L 797.84821 612.983495 
L 802.964387 597.677193 
L 808.080563 583.061632 
L 813.196739 569.100716 
L 818.312915 555.76049 
L 823.429091 543.008997 
L 828.545267 530.816146 
L 833.661444 519.153592 
L 839.203968 507.086638 
L 844.746492 495.578773 
L 850.289016 484.600008 
L 855.83154 474.122178 
L 861.374064 464.11882 
L 866.916589 454.565055 
L 872.459113 445.437484 
L 878.001637 436.71409 
L 883.970509 427.747927 
L 889.939381 419.202167 
L 895.908254 411.053991 
L 901.877126 403.281987 
L 907.845998 395.866047 
L 913.81487 388.787286 
L 920.21009 381.556919 
L 926.60531 374.672771 
L 933.000531 368.115655 
L 939.395751 361.867588 
L 946.217319 355.524646 
L 953.038887 349.495006 
L 959.860455 343.760761 
L 966.682024 338.305164 
L 973.92994 332.796399 
L 981.177856 327.566961 
L 988.425772 322.600465 
L 996.100037 317.611438 
L 1003.774301 312.883132 
L 1011.874913 308.157598 
L 1019.975525 303.687782 
L 1028.502486 299.2414 
L 1037.029446 295.043339 
L 1045.982754 290.885107 
L 1054.936062 286.965816 
L 1064.315719 283.098901 
L 1074.121723 279.299739 
L 1084.354075 275.581946 
L 1094.586428 272.097746 
L 1105.245128 268.698513 
L 1116.330176 265.393842 
L 1127.841573 262.191788 
L 1139.779317 259.098927 
L 1152.143409 256.120433 
L 1165.360198 253.168477 
L 1179.003334 250.351153 
L 1193.499167 247.590819 
L 1208.421347 244.977218 
L 1224.196224 242.441957 
L 1240.823796 239.998344 
L 1258.304065 237.656978 
L 1276.637029 235.425889 
L 1296.249038 233.26609 
L 1317.140091 231.194439 
L 1339.310187 229.223975 
L 1362.759328 227.364132 
L 1385.355773 225.763249 
L 1385.355773 225.763249 
" clip-path="url(#p70c404b283)" style="fill: none; stroke: #c44e52; stroke-width: 5; stroke-linecap: round"/>
   </g>
   <g id="line2d_5">
    <path d="M 849.072066 721 
L 853.6998 698.266056 
L 858.389628 676.396976 
L 863.079456 655.638017 
L 867.769285 635.926184 
L 872.459113 617.20243 
L 877.148941 599.411382 
L 881.838769 582.501095 
L 886.528597 566.422819 
L 891.218425 551.130783 
L 895.908254 536.581996 
L 900.598082 522.736065 
L 905.28791 509.555021 
L 909.977738 497.003158 
L 914.667566 485.046891 
L 919.357394 473.654613 
L 924.47357 461.834986 
L 929.589747 450.614895 
L 934.705923 439.960344 
L 939.822099 429.839465 
L 944.938275 420.222375 
L 950.054451 411.081036 
L 955.170627 402.389134 
L 960.286804 394.121963 
L 965.40298 386.256317 
L 970.519156 378.770388 
L 976.06168 371.065389 
L 981.604204 363.757547 
L 987.146728 356.823979 
L 992.689253 350.243258 
L 998.231777 343.995312 
L 1003.774301 338.061329 
L 1009.743173 332.001796 
L 1015.712045 326.265334 
L 1021.680917 320.832692 
L 1027.64979 315.685888 
L 1034.04501 310.469573 
L 1040.44023 305.542821 
L 1046.83545 300.887673 
L 1053.657018 296.202723 
L 1060.478587 291.7889 
L 1067.300155 287.628677 
L 1074.548071 283.468129 
L 1081.795987 279.557415 
L 1089.470251 275.670373 
L 1097.144516 272.026281 
L 1105.245128 268.424602 
L 1113.772088 264.885247 
L 1122.299049 261.584934 
L 1131.252357 258.357187 
L 1140.632013 255.216355 
L 1150.438017 252.174672 
L 1160.67037 249.242292 
L 1171.32907 246.427361 
L 1182.414118 243.736125 
L 1193.925515 241.173041 
L 1205.863259 238.740926 
L 1218.653699 236.365503 
L 1231.870488 234.136151 
L 1245.939972 231.988229 
L 1260.862153 229.936421 
L 1276.637029 227.991956 
L 1293.69095 226.118635 
L 1311.597566 224.375741 
L 1331.209575 222.69576 
L 1352.100628 221.133278 
L 1374.697072 219.668632 
L 1385.355773 219.048883 
L 1385.355773 219.048883 
" clip-path="url(#p70c404b283)" style="fill: none; stroke: #8172b3; stroke-width: 5; stroke-linecap: round"/>
   </g>
   <g id="line2d_6">
    <path d="M 138.18 615.012 
L 1385.272881 615.012 
" clip-path="url(#p70c404b283)" style="fill: none; stroke-dasharray: 1,1.65; stroke-dashoffset: 0; stroke: #808080; stroke-opacity: 0.7"/>
   </g>
   <g id="line2d_7">
    <path d="M 138.18 493.4571 
L 1385.272881 493.4571 
" clip-path="url(#p70c404b283)" style="fill: none; stroke-dasharray: 1,1.65; stroke-dashoffset: 0; stroke: #808080; stroke-opacity: 0.7"/>
   </g>
   <g id="line2d_8">
    <path d="M 138.18 371.9022 
L 1385.272881 371.9022 
" clip-path="url(#p70c404b283)" style="fill: none; stroke-dasharray: 1,1.65; stroke-dashoffset: 0; stroke: #808080; stroke-opacity: 0.7"/>
   </g>
   <g id="line2d_9">
    <path d="M 138.18 250.3473 
L 1385.272881 250.3473 
" clip-path="url(#p70c404b283)" style="fill: none; stroke-dasharray: 1,1.65; stroke-dashoffset: 0; stroke: #808080; stroke-opacity: 0.7"/>
   </g>
   <g id="patch_3">
    <path d="M 138.18 615.012 
L 138.18 128.7924 
" style="fill: none; stroke: #262626; stroke-width: 1.875; stroke-linejoin: miter; stroke-linecap: square"/>
   </g>
   <g id="patch_4">
    <path d="M 138.18 615.012 
L 1385.272881 615.012 
" style="fill: none; stroke: #262626; stroke-width: 1.875; stroke-linejoin: miter; stroke-linecap: square"/>
   </g>
   <g id="text_15">
    <!-- $\text{score}=\frac{-0.0248}{\left(\frac{\text{\#steps}}{116050.999}\right)^{\text{\#shots}}}+0.3667$ for different values of n -->
    <g style="fill: #262626" transform="translate(256.28644 56.48715) scale(0.36 -0.36)">
     <defs>
      <path id="DejaVuSans-73" d="M 2834 3397 
L 2834 2853 
Q 2591 2978 2328 3040 
Q 2066 3103 1784 3103 
Q 1356 3103 1142 2972 
Q 928 2841 928 2578 
Q 928 2378 1081 2264 
Q 1234 2150 1697 2047 
L 1894 2003 
Q 2506 1872 2764 1633 
Q 3022 1394 3022 966 
Q 3022 478 2636 193 
Q 2250 -91 1575 -91 
Q 1294 -91 989 -36 
Q 684 19 347 128 
L 347 722 
Q 666 556 975 473 
Q 1284 391 1588 391 
Q 1994 391 2212 530 
Q 2431 669 2431 922 
Q 2431 1156 2273 1281 
Q 2116 1406 1581 1522 
L 1381 1569 
Q 847 1681 609 1914 
Q 372 2147 372 2553 
Q 372 3047 722 3315 
Q 1072 3584 1716 3584 
Q 2034 3584 2315 3537 
Q 2597 3491 2834 3397 
z
" transform="scale(0.015625)"/>
      <path id="DejaVuSans-63" d="M 3122 3366 
L 3122 2828 
Q 2878 2963 2633 3030 
Q 2388 3097 2138 3097 
Q 1578 3097 1268 2742 
Q 959 2388 959 1747 
Q 959 1106 1268 751 
Q 1578 397 2138 397 
Q 2388 397 2633 464 
Q 2878 531 3122 666 
L 3122 134 
Q 2881 22 2623 -34 
Q 2366 -91 2075 -91 
Q 1284 -91 818 406 
Q 353 903 353 1747 
Q 353 2603 823 3093 
Q 1294 3584 2113 3584 
Q 2378 3584 2631 3529 
Q 2884 3475 3122 3366 
z
" transform="scale(0.015625)"/>
      <path id="DejaVuSans-6f" d="M 1959 3097 
Q 1497 3097 1228 2736 
Q 959 2375 959 1747 
Q 959 1119 1226 758 
Q 1494 397 1959 397 
Q 2419 397 2687 759 
Q 2956 1122 2956 1747 
Q 2956 2369 2687 2733 
Q 2419 3097 1959 3097 
z
M 1959 3584 
Q 2709 3584 3137 3096 
Q 3566 2609 3566 1747 
Q 3566 888 3137 398 
Q 2709 -91 1959 -91 
Q 1206 -91 779 398 
Q 353 888 353 1747 
Q 353 2609 779 3096 
Q 1206 3584 1959 3584 
z
" transform="scale(0.015625)"/>
      <path id="DejaVuSans-72" d="M 2631 2963 
Q 2534 3019 2420 3045 
Q 2306 3072 2169 3072 
Q 1681 3072 1420 2755 
Q 1159 2438 1159 1844 
L 1159 0 
L 581 0 
L 581 3500 
L 1159 3500 
L 1159 2956 
Q 1341 3275 1631 3429 
Q 1922 3584 2338 3584 
Q 2397 3584 2469 3576 
Q 2541 3569 2628 3553 
L 2631 2963 
z
" transform="scale(0.015625)"/>
      <path id="DejaVuSans-65" d="M 3597 1894 
L 3597 1613 
L 953 1613 
Q 991 1019 1311 708 
Q 1631 397 2203 397 
Q 2534 397 2845 478 
Q 3156 559 3463 722 
L 3463 178 
Q 3153 47 2828 -22 
Q 2503 -91 2169 -91 
Q 1331 -91 842 396 
Q 353 884 353 1716 
Q 353 2575 817 3079 
Q 1281 3584 2069 3584 
Q 2775 3584 3186 3129 
Q 3597 2675 3597 1894 
z
M 3022 2063 
Q 3016 2534 2758 2815 
Q 2500 3097 2075 3097 
Q 1594 3097 1305 2825 
Q 1016 2553 972 2059 
L 3022 2063 
z
" transform="scale(0.015625)"/>
      <path id="DejaVuSans-3d" d="M 678 2906 
L 4684 2906 
L 4684 2381 
L 678 2381 
L 678 2906 
z
M 678 1631 
L 4684 1631 
L 4684 1100 
L 678 1100 
L 678 1631 
z
" transform="scale(0.015625)"/>
      <path id="DejaVuSans-2212" d="M 678 2272 
L 4684 2272 
L 4684 1741 
L 678 1741 
L 678 2272 
z
" transform="scale(0.015625)"/>
      <path id="DejaVuSans-38" d="M 2034 2216 
Q 1584 2216 1326 1975 
Q 1069 1734 1069 1313 
Q 1069 891 1326 650 
Q 1584 409 2034 409 
Q 2484 409 2743 651 
Q 3003 894 3003 1313 
Q 3003 1734 2745 1975 
Q 2488 2216 2034 2216 
z
M 1403 2484 
Q 997 2584 770 2862 
Q 544 3141 544 3541 
Q 544 4100 942 4425 
Q 1341 4750 2034 4750 
Q 2731 4750 3128 4425 
Q 3525 4100 3525 3541 
Q 3525 3141 3298 2862 
Q 3072 2584 2669 2484 
Q 3125 2378 3379 2068 
Q 3634 1759 3634 1313 
Q 3634 634 3220 271 
Q 2806 -91 2034 -91 
Q 1263 -91 848 271 
Q 434 634 434 1313 
Q 434 1759 690 2068 
Q 947 2378 1403 2484 
z
M 1172 3481 
Q 1172 3119 1398 2916 
Q 1625 2713 2034 2713 
Q 2441 2713 2670 2916 
Q 2900 3119 2900 3481 
Q 2900 3844 2670 4047 
Q 2441 4250 2034 4250 
Q 1625 4250 1398 4047 
Q 1172 3844 1172 3481 
z
" transform="scale(0.015625)"/>
      <path id="STIXSizeTwoSym-Regular-28" d="M 3219 -1555 
L 3219 -1786 
Q 2144 -774 1517 730 
Q 890 2234 890 4115 
Q 890 6003 1533 7593 
Q 2176 9184 3219 10022 
L 3219 9811 
Q 2490 9062 1994 7606 
Q 1498 6150 1498 4115 
Q 1498 563 3219 -1555 
z
" transform="scale(0.015625)"/>
      <path id="DejaVuSans-23" d="M 3272 2816 
L 2363 2816 
L 2100 1772 
L 3016 1772 
L 3272 2816 
z
M 2803 4594 
L 2478 3297 
L 3391 3297 
L 3719 4594 
L 4219 4594 
L 3897 3297 
L 4872 3297 
L 4872 2816 
L 3775 2816 
L 3519 1772 
L 4513 1772 
L 4513 1294 
L 3397 1294 
L 3072 0 
L 2572 0 
L 2894 1294 
L 1978 1294 
L 1656 0 
L 1153 0 
L 1478 1294 
L 494 1294 
L 494 1772 
L 1594 1772 
L 1856 2816 
L 850 2816 
L 850 3297 
L 1978 3297 
L 2297 4594 
L 2803 4594 
z
" transform="scale(0.015625)"/>
      <path id="DejaVuSans-74" d="M 1172 4494 
L 1172 3500 
L 2356 3500 
L 2356 3053 
L 1172 3053 
L 1172 1153 
Q 1172 725 1289 603 
Q 1406 481 1766 481 
L 2356 481 
L 2356 0 
L 1766 0 
Q 1100 0 847 248 
Q 594 497 594 1153 
L 594 3053 
L 172 3053 
L 172 3500 
L 594 3500 
L 594 4494 
L 1172 4494 
z
" transform="scale(0.015625)"/>
      <path id="DejaVuSans-70" d="M 1159 525 
L 1159 -1331 
L 581 -1331 
L 581 3500 
L 1159 3500 
L 1159 2969 
Q 1341 3281 1617 3432 
Q 1894 3584 2278 3584 
Q 2916 3584 3314 3078 
Q 3713 2572 3713 1747 
Q 3713 922 3314 415 
Q 2916 -91 2278 -91 
Q 1894 -91 1617 61 
Q 1341 213 1159 525 
z
M 3116 1747 
Q 3116 2381 2855 2742 
Q 2594 3103 2138 3103 
Q 1681 3103 1420 2742 
Q 1159 2381 1159 1747 
Q 1159 1113 1420 752 
Q 1681 391 2138 391 
Q 2594 391 2855 752 
Q 3116 1113 3116 1747 
z
" transform="scale(0.015625)"/>
      <path id="DejaVuSans-36" d="M 2113 2584 
Q 1688 2584 1439 2293 
Q 1191 2003 1191 1497 
Q 1191 994 1439 701 
Q 1688 409 2113 409 
Q 2538 409 2786 701 
Q 3034 994 3034 1497 
Q 3034 2003 2786 2293 
Q 2538 2584 2113 2584 
z
M 3366 4563 
L 3366 3988 
Q 3128 4100 2886 4159 
Q 2644 4219 2406 4219 
Q 1781 4219 1451 3797 
Q 1122 3375 1075 2522 
Q 1259 2794 1537 2939 
Q 1816 3084 2150 3084 
Q 2853 3084 3261 2657 
Q 3669 2231 3669 1497 
Q 3669 778 3244 343 
Q 2819 -91 2113 -91 
Q 1303 -91 875 529 
Q 447 1150 447 2328 
Q 447 3434 972 4092 
Q 1497 4750 2381 4750 
Q 2619 4750 2861 4703 
Q 3103 4656 3366 4563 
z
" transform="scale(0.015625)"/>
      <path id="DejaVuSans-39" d="M 703 97 
L 703 672 
Q 941 559 1184 500 
Q 1428 441 1663 441 
Q 2288 441 2617 861 
Q 2947 1281 2994 2138 
Q 2813 1869 2534 1725 
Q 2256 1581 1919 1581 
Q 1219 1581 811 2004 
Q 403 2428 403 3163 
Q 403 3881 828 4315 
Q 1253 4750 1959 4750 
Q 2769 4750 3195 4129 
Q 3622 3509 3622 2328 
Q 3622 1225 3098 567 
Q 2575 -91 1691 -91 
Q 1453 -91 1209 -44 
Q 966 3 703 97 
z
M 1959 2075 
Q 2384 2075 2632 2365 
Q 2881 2656 2881 3163 
Q 2881 3666 2632 3958 
Q 2384 4250 1959 4250 
Q 1534 4250 1286 3958 
Q 1038 3666 1038 3163 
Q 1038 2656 1286 2365 
Q 1534 2075 1959 2075 
z
" transform="scale(0.015625)"/>
      <path id="STIXSizeTwoSym-Regular-29" d="M 730 9792 
L 730 10022 
Q 1805 9011 2432 7507 
Q 3059 6003 3059 4115 
Q 3059 2234 2416 643 
Q 1773 -947 730 -1786 
L 730 -1574 
Q 1459 -826 1955 633 
Q 2451 2093 2451 4115 
Q 2451 7674 730 9792 
z
" transform="scale(0.015625)"/>
      <path id="DejaVuSans-68" d="M 3513 2113 
L 3513 0 
L 2938 0 
L 2938 2094 
Q 2938 2591 2744 2837 
Q 2550 3084 2163 3084 
Q 1697 3084 1428 2787 
Q 1159 2491 1159 1978 
L 1159 0 
L 581 0 
L 581 4863 
L 1159 4863 
L 1159 2956 
Q 1366 3272 1645 3428 
Q 1925 3584 2291 3584 
Q 2894 3584 3203 3211 
Q 3513 2838 3513 2113 
z
" transform="scale(0.015625)"/>
      <path id="DejaVuSans-2b" d="M 2944 4013 
L 2944 2272 
L 4684 2272 
L 4684 1741 
L 2944 1741 
L 2944 0 
L 2419 0 
L 2419 1741 
L 678 1741 
L 678 2272 
L 2419 2272 
L 2419 4013 
L 2944 4013 
z
" transform="scale(0.015625)"/>
      <path id="DejaVuSans-Bold-66" d="M 2841 4863 
L 2841 4128 
L 2222 4128 
Q 1984 4128 1890 4042 
Q 1797 3956 1797 3744 
L 1797 3500 
L 2753 3500 
L 2753 2700 
L 1797 2700 
L 1797 0 
L 678 0 
L 678 2700 
L 122 2700 
L 122 3500 
L 678 3500 
L 678 3744 
Q 678 4316 997 4589 
Q 1316 4863 1984 4863 
L 2841 4863 
z
" transform="scale(0.015625)"/>
      <path id="DejaVuSans-Bold-76" d="M 97 3500 
L 1216 3500 
L 2088 1081 
L 2956 3500 
L 4078 3500 
L 2700 0 
L 1472 0 
L 97 3500 
z
" transform="scale(0.015625)"/>
      <path id="DejaVuSans-Bold-6c" d="M 538 4863 
L 1656 4863 
L 1656 0 
L 538 0 
L 538 4863 
z
" transform="scale(0.015625)"/>
      <path id="DejaVuSans-Bold-75" d="M 500 1363 
L 500 3500 
L 1625 3500 
L 1625 3150 
Q 1625 2866 1622 2436 
Q 1619 2006 1619 1863 
Q 1619 1441 1641 1255 
Q 1663 1069 1716 984 
Q 1784 875 1895 815 
Q 2006 756 2150 756 
Q 2500 756 2700 1025 
Q 2900 1294 2900 1772 
L 2900 3500 
L 4019 3500 
L 4019 0 
L 2900 0 
L 2900 506 
Q 2647 200 2364 54 
Q 2081 -91 1741 -91 
Q 1134 -91 817 281 
Q 500 653 500 1363 
z
" transform="scale(0.015625)"/>
     </defs>
     <use xlink:href="#DejaVuSans-73" transform="translate(0 0.254688)"/>
     <use xlink:href="#DejaVuSans-63" transform="translate(52.099609 0.254688)"/>
     <use xlink:href="#DejaVuSans-6f" transform="translate(107.080078 0.254688)"/>
     <use xlink:href="#DejaVuSans-72" transform="translate(168.261719 0.254688)"/>
     <use xlink:href="#DejaVuSans-65" transform="translate(209.375 0.254688)"/>
     <use xlink:href="#DejaVuSans-3d" transform="translate(290.380859 0.254688)"/>
     <use xlink:href="#DejaVuSans-2212" transform="translate(515.652344 45.046875) scale(0.7)"/>
     <use xlink:href="#DejaVuSans-30" transform="translate(574.304688 45.046875) scale(0.7)"/>
     <use xlink:href="#DejaVuSans-2e" transform="translate(618.84082 45.046875) scale(0.7)"/>
     <use xlink:href="#DejaVuSans-30" transform="translate(641.091797 45.046875) scale(0.7)"/>
     <use xlink:href="#DejaVuSans-32" transform="translate(685.62793 45.046875) scale(0.7)"/>
     <use xlink:href="#DejaVuSans-34" transform="translate(730.164062 45.046875) scale(0.7)"/>
     <use xlink:href="#DejaVuSans-38" transform="translate(774.700195 45.046875) scale(0.7)"/>
     <use xlink:href="#STIXSizeTwoSym-Regular-28" transform="translate(393.652344 -75.989062) scale(0.565324)"/>
     <use xlink:href="#DejaVuSans-23" transform="translate(488.94556 -22.675312) scale(0.49)"/>
     <use xlink:href="#DejaVuSans-73" transform="translate(530.0022 -22.675312) scale(0.49)"/>
     <use xlink:href="#DejaVuSans-74" transform="translate(555.531009 -22.675312) scale(0.49)"/>
     <use xlink:href="#DejaVuSans-65" transform="translate(574.743411 -22.675312) scale(0.49)"/>
     <use xlink:href="#DejaVuSans-70" transform="translate(604.889896 -22.675312) scale(0.49)"/>
     <use xlink:href="#DejaVuSans-73" transform="translate(635.993411 -22.675312) scale(0.49)"/>
     <use xlink:href="#DejaVuSans-31" transform="translate(426.94556 -91.107969) scale(0.49)"/>
     <use xlink:href="#DejaVuSans-31" transform="translate(458.120853 -91.107969) scale(0.49)"/>
     <use xlink:href="#DejaVuSans-36" transform="translate(489.296146 -91.107969) scale(0.49)"/>
     <use xlink:href="#DejaVuSans-30" transform="translate(520.471439 -91.107969) scale(0.49)"/>
     <use xlink:href="#DejaVuSans-35" transform="translate(551.646732 -91.107969) scale(0.49)"/>
     <use xlink:href="#DejaVuSans-30" transform="translate(582.822025 -91.107969) scale(0.49)"/>
     <use xlink:href="#DejaVuSans-2e" transform="translate(613.997318 -91.107969) scale(0.49)"/>
     <use xlink:href="#DejaVuSans-39" transform="translate(629.573001 -91.107969) scale(0.49)"/>
     <use xlink:href="#DejaVuSans-39" transform="translate(660.748294 -91.107969) scale(0.49)"/>
     <use xlink:href="#DejaVuSans-39" transform="translate(691.923587 -91.107969) scale(0.49)"/>
     <use xlink:href="#STIXSizeTwoSym-Regular-29" transform="translate(731.84888 -75.989062) scale(0.565324)"/>
     <use xlink:href="#DejaVuSans-23" transform="translate(766.885997 -36.726719) scale(0.49)"/>
     <use xlink:href="#DejaVuSans-73" transform="translate(807.942638 -36.726719) scale(0.49)"/>
     <use xlink:href="#DejaVuSans-68" transform="translate(833.471446 -36.726719) scale(0.49)"/>
     <use xlink:href="#DejaVuSans-6f" transform="translate(864.52711 -36.726719) scale(0.49)"/>
     <use xlink:href="#DejaVuSans-74" transform="translate(894.506114 -36.726719) scale(0.49)"/>
     <use xlink:href="#DejaVuSans-73" transform="translate(913.718517 -36.726719) scale(0.49)"/>
     <use xlink:href="#DejaVuSans-2b" transform="translate(973.14381 0.254688)"/>
     <use xlink:href="#DejaVuSans-30" transform="translate(1076.415294 0.254688)"/>
     <use xlink:href="#DejaVuSans-2e" transform="translate(1140.038341 0.254688)"/>
     <use xlink:href="#DejaVuSans-33" transform="translate(1171.82545 0.254688)"/>
     <use xlink:href="#DejaVuSans-36" transform="translate(1235.448497 0.254688)"/>
     <use xlink:href="#DejaVuSans-36" transform="translate(1299.071544 0.254688)"/>
     <use xlink:href="#DejaVuSans-37" transform="translate(1362.694591 0.254688)"/>
     <use xlink:href="#DejaVuSans-Bold-20" transform="translate(1426.317638 0.254688)"/>
     <use xlink:href="#DejaVuSans-Bold-66" transform="translate(1461.132091 0.254688)"/>
     <use xlink:href="#DejaVuSans-Bold-6f" transform="translate(1504.63795 0.254688)"/>
     <use xlink:href="#DejaVuSans-Bold-72" transform="translate(1573.339122 0.254688)"/>
     <use xlink:href="#DejaVuSans-Bold-20" transform="translate(1622.655528 0.254688)"/>
     <use xlink:href="#DejaVuSans-Bold-64" transform="translate(1657.469981 0.254688)"/>
     <use xlink:href="#DejaVuSans-Bold-69" transform="translate(1729.052013 0.254688)"/>
     <use xlink:href="#DejaVuSans-Bold-66" transform="translate(1763.329356 0.254688)"/>
     <use xlink:href="#DejaVuSans-Bold-66" transform="translate(1806.835216 0.254688)"/>
     <use xlink:href="#DejaVuSans-Bold-65" transform="translate(1850.341075 0.254688)"/>
     <use xlink:href="#DejaVuSans-Bold-72" transform="translate(1918.163341 0.254688)"/>
     <use xlink:href="#DejaVuSans-Bold-65" transform="translate(1967.479747 0.254688)"/>
     <use xlink:href="#DejaVuSans-Bold-6e" transform="translate(2035.302013 0.254688)"/>
     <use xlink:href="#DejaVuSans-Bold-74" transform="translate(2106.493419 0.254688)"/>
     <use xlink:href="#DejaVuSans-Bold-20" transform="translate(2154.296153 0.254688)"/>
     <use xlink:href="#DejaVuSans-Bold-76" transform="translate(2189.110606 0.254688)"/>
     <use xlink:href="#DejaVuSans-Bold-61" transform="translate(2254.296153 0.254688)"/>
     <use xlink:href="#DejaVuSans-Bold-6c" transform="translate(2321.776622 0.254688)"/>
     <use xlink:href="#DejaVuSans-Bold-75" transform="translate(2356.053966 0.254688)"/>
     <use xlink:href="#DejaVuSans-Bold-65" transform="translate(2427.245372 0.254688)"/>
     <use xlink:href="#DejaVuSans-Bold-73" transform="translate(2495.067638 0.254688)"/>
     <use xlink:href="#DejaVuSans-Bold-20" transform="translate(2554.589122 0.254688)"/>
     <use xlink:href="#DejaVuSans-Bold-6f" transform="translate(2589.403575 0.254688)"/>
     <use xlink:href="#DejaVuSans-Bold-66" transform="translate(2658.104747 0.254688)"/>
     <use xlink:href="#DejaVuSans-Bold-20" transform="translate(2701.610606 0.254688)"/>
     <use xlink:href="#DejaVuSans-Bold-6e" transform="translate(2736.42506 0.254688)"/>
     <path d="M 393.652344 19.051563 
L 393.652344 25.301563 
L 941.161388 25.301563 
L 941.161388 19.051563 
L 393.652344 19.051563 
z
"/>
     <path d="M 426.94556 -50.365781 
L 426.94556 -45.990781 
L 723.09888 -45.990781 
L 723.09888 -50.365781 
L 426.94556 -50.365781 
z
"/>
    </g>
    <!--  -->
    <g style="fill: #262626" transform="translate(761.72644 122.7924) scale(0.36 -0.36)"/>
   </g>
   <g id="legend_1">
    <g id="patch_5">
     <path d="M 183.83894 214.297028 
L 1339.61394 214.297028 
Q 1346.01394 214.297028 1346.01394 207.897028 
L 1346.01394 117.157028 
Q 1346.01394 110.757028 1339.61394 110.757028 
L 183.83894 110.757028 
Q 177.43894 110.757028 177.43894 117.157028 
L 177.43894 207.897028 
Q 177.43894 214.297028 183.83894 214.297028 
z
" style="fill: #ffffff; opacity: 0.8; stroke: #cccccc; stroke-width: 1.5; stroke-linejoin: miter"/>
    </g>
    <g id="text_16">
     <!-- Number of Shots -->
     <g style="fill: #262626" transform="translate(627.16394 147.872028) scale(0.32 -0.32)">
      <defs>
       <path id="DejaVuSans-4e" d="M 628 4666 
L 1478 4666 
L 3547 763 
L 3547 4666 
L 4159 4666 
L 4159 0 
L 3309 0 
L 1241 3903 
L 1241 0 
L 628 0 
L 628 4666 
z
" transform="scale(0.015625)"/>
       <path id="DejaVuSans-75" d="M 544 1381 
L 544 3500 
L 1119 3500 
L 1119 1403 
Q 1119 906 1312 657 
Q 1506 409 1894 409 
Q 2359 409 2629 706 
Q 2900 1003 2900 1516 
L 2900 3500 
L 3475 3500 
L 3475 0 
L 2900 0 
L 2900 538 
Q 2691 219 2414 64 
Q 2138 -91 1772 -91 
Q 1169 -91 856 284 
Q 544 659 544 1381 
z
M 1991 3584 
L 1991 3584 
z
" transform="scale(0.015625)"/>
       <path id="DejaVuSans-6d" d="M 3328 2828 
Q 3544 3216 3844 3400 
Q 4144 3584 4550 3584 
Q 5097 3584 5394 3201 
Q 5691 2819 5691 2113 
L 5691 0 
L 5113 0 
L 5113 2094 
Q 5113 2597 4934 2840 
Q 4756 3084 4391 3084 
Q 3944 3084 3684 2787 
Q 3425 2491 3425 1978 
L 3425 0 
L 2847 0 
L 2847 2094 
Q 2847 2600 2669 2842 
Q 2491 3084 2119 3084 
Q 1678 3084 1418 2786 
Q 1159 2488 1159 1978 
L 1159 0 
L 581 0 
L 581 3500 
L 1159 3500 
L 1159 2956 
Q 1356 3278 1631 3431 
Q 1906 3584 2284 3584 
Q 2666 3584 2933 3390 
Q 3200 3197 3328 2828 
z
" transform="scale(0.015625)"/>
       <path id="DejaVuSans-62" d="M 3116 1747 
Q 3116 2381 2855 2742 
Q 2594 3103 2138 3103 
Q 1681 3103 1420 2742 
Q 1159 2381 1159 1747 
Q 1159 1113 1420 752 
Q 1681 391 2138 391 
Q 2594 391 2855 752 
Q 3116 1113 3116 1747 
z
M 1159 2969 
Q 1341 3281 1617 3432 
Q 1894 3584 2278 3584 
Q 2916 3584 3314 3078 
Q 3713 2572 3713 1747 
Q 3713 922 3314 415 
Q 2916 -91 2278 -91 
Q 1894 -91 1617 61 
Q 1341 213 1159 525 
L 1159 0 
L 581 0 
L 581 4863 
L 1159 4863 
L 1159 2969 
z
" transform="scale(0.015625)"/>
       <path id="DejaVuSans-20" transform="scale(0.015625)"/>
       <path id="DejaVuSans-66" d="M 2375 4863 
L 2375 4384 
L 1825 4384 
Q 1516 4384 1395 4259 
Q 1275 4134 1275 3809 
L 1275 3500 
L 2222 3500 
L 2222 3053 
L 1275 3053 
L 1275 0 
L 697 0 
L 697 3053 
L 147 3053 
L 147 3500 
L 697 3500 
L 697 3744 
Q 697 4328 969 4595 
Q 1241 4863 1831 4863 
L 2375 4863 
z
" transform="scale(0.015625)"/>
       <path id="DejaVuSans-53" d="M 3425 4513 
L 3425 3897 
Q 3066 4069 2747 4153 
Q 2428 4238 2131 4238 
Q 1616 4238 1336 4038 
Q 1056 3838 1056 3469 
Q 1056 3159 1242 3001 
Q 1428 2844 1947 2747 
L 2328 2669 
Q 3034 2534 3370 2195 
Q 3706 1856 3706 1288 
Q 3706 609 3251 259 
Q 2797 -91 1919 -91 
Q 1588 -91 1214 -16 
Q 841 59 441 206 
L 441 856 
Q 825 641 1194 531 
Q 1563 422 1919 422 
Q 2459 422 2753 634 
Q 3047 847 3047 1241 
Q 3047 1584 2836 1778 
Q 2625 1972 2144 2069 
L 1759 2144 
Q 1053 2284 737 2584 
Q 422 2884 422 3419 
Q 422 4038 858 4394 
Q 1294 4750 2059 4750 
Q 2388 4750 2728 4690 
Q 3069 4631 3425 4513 
z
" transform="scale(0.015625)"/>
      </defs>
      <use xlink:href="#DejaVuSans-4e"/>
      <use xlink:href="#DejaVuSans-75" x="74.804688"/>
      <use xlink:href="#DejaVuSans-6d" x="138.183594"/>
      <use xlink:href="#DejaVuSans-62" x="235.595703"/>
      <use xlink:href="#DejaVuSans-65" x="299.072266"/>
      <use xlink:href="#DejaVuSans-72" x="360.595703"/>
      <use xlink:href="#DejaVuSans-20" x="401.708984"/>
      <use xlink:href="#DejaVuSans-6f" x="433.496094"/>
      <use xlink:href="#DejaVuSans-66" x="494.677734"/>
      <use xlink:href="#DejaVuSans-20" x="529.882812"/>
      <use xlink:href="#DejaVuSans-53" x="561.669922"/>
      <use xlink:href="#DejaVuSans-68" x="625.146484"/>
      <use xlink:href="#DejaVuSans-6f" x="688.525391"/>
      <use xlink:href="#DejaVuSans-74" x="749.707031"/>
      <use xlink:href="#DejaVuSans-73" x="788.916016"/>
     </g>
    </g>
    <g id="line2d_10">
     <path d="M 190.23894 183.642028 
L 222.23894 183.642028 
L 254.23894 183.642028 
" style="fill: none; stroke: #4c72b0; stroke-width: 5; stroke-linecap: round"/>
    </g>
    <g id="text_17">
     <!-- n = 1 -->
     <g style="fill: #262626" transform="translate(279.83894 194.842028) scale(0.32 -0.32)">
      <defs>
       <path id="DejaVuSans-6e" d="M 3513 2113 
L 3513 0 
L 2938 0 
L 2938 2094 
Q 2938 2591 2744 2837 
Q 2550 3084 2163 3084 
Q 1697 3084 1428 2787 
Q 1159 2491 1159 1978 
L 1159 0 
L 581 0 
L 581 3500 
L 1159 3500 
L 1159 2956 
Q 1366 3272 1645 3428 
Q 1925 3584 2291 3584 
Q 2894 3584 3203 3211 
Q 3513 2838 3513 2113 
z
" transform="scale(0.015625)"/>
      </defs>
      <use xlink:href="#DejaVuSans-6e"/>
      <use xlink:href="#DejaVuSans-20" x="63.378906"/>
      <use xlink:href="#DejaVuSans-3d" x="95.166016"/>
      <use xlink:href="#DejaVuSans-20" x="178.955078"/>
      <use xlink:href="#DejaVuSans-31" x="210.742188"/>
     </g>
    </g>
    <g id="line2d_11">
     <path d="M 431.63394 183.642028 
L 463.63394 183.642028 
L 495.63394 183.642028 
" style="fill: none; stroke: #dd8452; stroke-width: 5; stroke-linecap: round"/>
    </g>
    <g id="text_18">
     <!-- n = 2 -->
     <g style="fill: #262626" transform="translate(521.23394 194.842028) scale(0.32 -0.32)">
      <use xlink:href="#DejaVuSans-6e"/>
      <use xlink:href="#DejaVuSans-20" x="63.378906"/>
      <use xlink:href="#DejaVuSans-3d" x="95.166016"/>
      <use xlink:href="#DejaVuSans-20" x="178.955078"/>
      <use xlink:href="#DejaVuSans-32" x="210.742188"/>
     </g>
    </g>
    <g id="line2d_12">
     <path d="M 673.02894 183.642028 
L 705.02894 183.642028 
L 737.02894 183.642028 
" style="fill: none; stroke: #55a868; stroke-width: 5; stroke-linecap: round"/>
    </g>
    <g id="text_19">
     <!-- n = 3 -->
     <g style="fill: #262626" transform="translate(762.62894 194.842028) scale(0.32 -0.32)">
      <use xlink:href="#DejaVuSans-6e"/>
      <use xlink:href="#DejaVuSans-20" x="63.378906"/>
      <use xlink:href="#DejaVuSans-3d" x="95.166016"/>
      <use xlink:href="#DejaVuSans-20" x="178.955078"/>
      <use xlink:href="#DejaVuSans-33" x="210.742188"/>
     </g>
    </g>
    <g id="line2d_13">
     <path d="M 914.42394 183.642028 
L 946.42394 183.642028 
L 978.42394 183.642028 
" style="fill: none; stroke: #c44e52; stroke-width: 5; stroke-linecap: round"/>
    </g>
    <g id="text_20">
     <!-- n = 5 -->
     <g style="fill: #262626" transform="translate(1004.02394 194.842028) scale(0.32 -0.32)">
      <use xlink:href="#DejaVuSans-6e"/>
      <use xlink:href="#DejaVuSans-20" x="63.378906"/>
      <use xlink:href="#DejaVuSans-3d" x="95.166016"/>
      <use xlink:href="#DejaVuSans-20" x="178.955078"/>
      <use xlink:href="#DejaVuSans-35" x="210.742188"/>
     </g>
    </g>
    <g id="line2d_14">
     <path d="M 1155.81894 183.642028 
L 1187.81894 183.642028 
L 1219.81894 183.642028 
" style="fill: none; stroke: #8172b3; stroke-width: 5; stroke-linecap: round"/>
    </g>
    <g id="text_21">
     <!-- n = 7 -->
     <g style="fill: #262626" transform="translate(1245.41894 194.842028) scale(0.32 -0.32)">
      <use xlink:href="#DejaVuSans-6e"/>
      <use xlink:href="#DejaVuSans-20" x="63.378906"/>
      <use xlink:href="#DejaVuSans-3d" x="95.166016"/>
      <use xlink:href="#DejaVuSans-20" x="178.955078"/>
      <use xlink:href="#DejaVuSans-37" x="210.742188"/>
     </g>
    </g>
   </g>
  </g>
 </g>
 <defs>
  <clipPath id="p70c404b283">
   <rect x="138.18" y="128.7924" width="1247.092881" height="486.2196"/>
  </clipPath>
 </defs>
</svg>
